<?xml version="1.0" ?><svg enable-background="new 0 0 64 64" id="Layer_1_1_" version="1.1" viewBox="0 0 64 64" xml:space="preserve" xmlns="http://www.w3.org/2000/svg" xmlns:xlink="http://www.w3.org/1999/xlink"><g><g><path d="M51.9,63H10.1L28,55.3V40.2L15.6,1h30.7L34,40.2v15.2L51.9,63z M19.9,61h22.3L32,56.7l0-17L43.6,3H18.4    L30,39.8v16.8L19.9,61z" fill="#333333"/></g><g><path d="M32.7,35h-3.5l-7.6-25h18.7L32.7,35z M30.7,33h0.5l6.4-21H24.3L30.7,33z" fill="#333333"/></g><g><polygon fill="#333333" points="21.1,8.3 19.6,4 26,4 26,6 22.4,6 22.9,7.7   "/></g><g><rect fill="#333333" height="2" width="2" x="28" y="4"/></g></g></svg>