<?xml version="1.0" ?><svg enable-background="new 0 0 64 64" id="Layer_1_1_" version="1.1" viewBox="0 0 64 64" xml:space="preserve" xmlns="http://www.w3.org/2000/svg" xmlns:xlink="http://www.w3.org/1999/xlink"><g><g><rect fill="#333333" height="2" width="9" x="44" y="17"/></g><g><rect fill="#333333" height="2" width="21" x="21" y="17"/></g><g><rect fill="#333333" height="2" width="4" x="28" y="21"/></g><g><rect fill="#333333" height="2" width="2" x="34" y="21"/></g><g><path d="M16,23C9.9,23,5,18.1,5,12S9.9,1,16,1s11,4.9,11,11h-2c0-5-4-9-9-9s-9,4-9,9s4,9,9,9c2.7,0,4.4-1,5.4-1.8    l1.3,1.5C21.5,21.8,19.3,23,16,23z" fill="#333333"/></g><g><rect fill="#333333" height="2" transform="matrix(0.7682 -0.6402 0.6402 0.7682 -6.2697 11.6844)" width="7.8" x="9.1" y="13.5"/></g><g><rect fill="#333333" height="2" transform="matrix(0.2427 -0.9701 0.9701 0.2427 -4.1616 26.6693)" width="8.2" x="10.9" y="15"/></g><g><path d="M53,63H21v-1c0-1.6,2.5-4,6-4h7V35.4L13.9,11h46.2L40.1,35.4L40,58h7c3.5,0,6,2.4,6,4V63z M23.9,61h26.3    c-0.7-0.5-1.7-1-3.1-1h-9l0.1-25.4l0.2-0.3L55.9,13H18.1L36,34.6V60h-9C25.6,60,24.5,60.5,23.9,61z" fill="#333333"/></g></g></svg>