<?xml version="1.0" ?><svg enable-background="new 0 0 64 64" id="Layer_1_1_" version="1.1" viewBox="0 0 64 64" xml:space="preserve" xmlns="http://www.w3.org/2000/svg" xmlns:xlink="http://www.w3.org/1999/xlink"><g><g><path d="M54.2,63H9.8L29,55.3V40.9c-8.5-1.4-14-7.1-14-14.9c0-2.6,1.1-6.1,2.2-9.4c0.9-3,1.8-5.8,1.8-7.6    c0-3.7-1.8-6.4-1.8-6.4l-1-1.6h31.7l-1,1.6c0,0-1.8,2.8-1.8,6.4c0,1.8,0.9,4.6,1.8,7.6c1.1,3.3,2.2,6.8,2.2,9.4    c0,7.7-5.5,13.5-14,14.9v14.5L54.2,63z M20.2,61h23.6L33,56.7V39.1l0.9-0.1c8-1,13.1-6.1,13.1-13c0-2.3-1.1-5.6-2.1-8.8    c-1-3.1-1.9-6.1-1.9-8.2c0-2.5,0.7-4.6,1.3-6H19.7C20.3,4.4,21,6.5,21,9c0,2.1-0.9,5.1-1.9,8.2c-1,3.2-2.1,6.5-2.1,8.8    c0,6.9,5.2,12,13.1,13l0.9,0.1v17.6L20.2,61z" fill="#333333"/></g><g><path d="M32.7,36l-1.4,0C24.3,35.1,20,30.9,20,25c0-2.3,0.7-4.8,1.5-7.5c0.5-1.8,1.1-3.7,1.5-5.7l0.2-0.8h17.7    l0.2,0.8c0.4,2,0.9,3.9,1.5,5.7c0.8,2.7,1.5,5.2,1.5,7.5C44,30.9,39.7,35.1,32.7,36L32.7,36z M31.5,34h1.1c5.9-0.8,9.5-4.1,9.5-9    c0-2-0.7-4.4-1.4-6.9c-0.5-1.6-1-3.3-1.3-5.1H24.8c-0.4,1.8-0.9,3.4-1.3,5.1C22.7,20.6,22,23,22,25C22,29.9,25.5,33.2,31.5,34z" fill="#333333"/></g><g><rect fill="#333333" height="2" width="10" x="27" y="5"/></g><g><rect fill="#333333" height="2" width="2" x="39" y="5"/></g></g></svg>