<?xml version="1.0" ?><svg enable-background="new 0 0 64 64" id="Layer_1_1_" version="1.1" viewBox="0 0 64 64" xml:space="preserve" xmlns="http://www.w3.org/2000/svg" xmlns:xlink="http://www.w3.org/1999/xlink"><g><g><path d="M36,32h-8c-3.5,0-6-2.5-6-6V11h20v15C42,29.5,39.5,32,36,32z M24,13v13c0,2.4,1.6,4,4,4h8c2.4,0,4-1.6,4-4    V13H24z" fill="#333333"/></g><g><rect fill="#333333" height="4" width="2" x="22" y="5"/></g><g><path d="M35,28v-2c0.6,0,1-0.4,1-1v-5h2v5C38,26.7,36.7,28,35,28z" fill="#333333"/></g><g><path d="M47,63H17v-1c0-2.8,2.2-5,5-5h7V36c-6.1,0-11-4.9-11-11V1h28v24c0,6.1-4.9,11-11,11v21h7c2.8,0,5,2.2,5,5    V63z M19.2,61h25.7c-0.4-1.2-1.5-2-2.8-2h-9V34h2c5,0,9-4,9-9V3H20v22c0,5,4,9,9,9h2v25h-9C20.7,59,19.6,59.8,19.2,61z" fill="#333333"/></g></g></svg>