<?xml version="1.0" ?><svg enable-background="new 0 0 64 64" id="Layer_1_1_" version="1.1" viewBox="0 0 64 64" xml:space="preserve" xmlns="http://www.w3.org/2000/svg" xmlns:xlink="http://www.w3.org/1999/xlink"><g><g><g><path d="M52,27H12c-1.9,0-3-1.1-3-3v-1c0-1.9,1.1-3,3-3h40c1.9,0,3,1.1,3,3v1C55,25.9,53.9,27,52,27z M12,22     c-0.8,0-1,0.2-1,1v1c0,0.8,0.2,1,1,1h40c0.8,0,1-0.2,1-1v-1c0-0.8-0.2-1-1-1H12z" fill="#343433"/></g><g><path d="M43,63H21c-1.3,0-2-1-2-1.9l-6-34.9l2-0.3L21,61h22l0-0.2l6-35l2,0.3l-6,34.9C45,62,44.3,63,43,63z" fill="#343433"/></g><g><path d="M52,21h-2c0-9.9-8.1-18-18-18c-9.9,0-18,8.1-18,18h-2c0-11,9-20,20-20C43,1,52,10,52,21z" fill="#343433"/></g><g><rect fill="#343433" height="2" transform="matrix(0.3881 -0.9216 0.9216 0.3881 17.5497 49.4319)" width="20.6" x="35.7" y="10.5"/></g><g><rect fill="#343433" height="2" transform="matrix(0.9364 -0.351 0.351 0.9364 -10.1858 13.8106)" width="34.2" x="15.9" y="34"/></g><g><rect fill="#343433" height="2" transform="matrix(0.9588 -0.2841 0.2841 0.9588 -13.1508 11.3357)" width="28.2" x="18.4" y="50"/></g><g><rect fill="#343433" height="12.2" transform="matrix(0.9864 -0.1644 0.1644 0.9864 -5.6465 3.778)" width="2" x="19" y="29.9"/></g></g><g><path d="M19,18.2l-2-0.4c1.1-5.6,4.5-9.7,8.7-10.8L26.2,9C22.7,9.8,19.9,13.4,19,18.2z" fill="#343433"/></g></g></svg>