<?xml version="1.0" ?><svg enable-background="new 0 0 64 64" id="Layer_1_1_" version="1.1" viewBox="0 0 64 64" xml:space="preserve" xmlns="http://www.w3.org/2000/svg" xmlns:xlink="http://www.w3.org/1999/xlink"><g><g><rect fill="#343433" height="2" transform="matrix(0.124 -0.9923 0.9923 0.124 -20.091 89.2413)" width="8.1" x="36.5" y="55"/></g><g><path d="M51,19H13c-1.9,0-3-1.1-3-3v-4c0-1.9,1.1-3,3-3h2.2L16,4.9C16,2.5,17.5,1,20,1h24c2.4,0,4,1.5,4,3.9    L48.8,9H51c1.9,0,3,1.1,3,3v4C54,17.9,52.9,19,51,19z M13,11c-0.8,0-1,0.2-1,1v4c0,0.8,0.2,1,1,1h38c0.8,0,1-0.2,1-1v-4    c0-0.8-0.2-1-1-1h-3.8L46,5c0-1.3-0.7-2-2-2H20c-1.4,0-2,0.6-2,2l0,0.2L16.8,11H13z" fill="#343433"/></g><g><rect fill="#343433" height="2" width="17" x="27" y="9"/></g><g><rect fill="#343433" height="2" width="2" x="23" y="9"/></g><g><rect fill="#343433" height="2" width="2" x="19" y="9"/></g><g><g><rect fill="#343433" height="2" transform="matrix(0.1646 -0.9864 0.9864 0.1646 17.2639 68.3826)" width="12.2" x="42.9" y="23"/></g><g><path d="M43,63H21c-1.3,0-2-1-2-1.9l-2-13.9l2-0.3L21,61h22l0-0.1l2-14l2,0.3l-2,13.9C45,62,44.3,63,43,63z" fill="#343433"/></g><g><rect fill="#343433" height="12.1" transform="matrix(0.9904 -0.1382 0.1382 0.9904 -3.1821 2.3281)" width="2" x="14.2" y="18"/></g><g><path d="M46,48H18c-1,0-1.9-0.8-2-1.9l-2-15c0-0.3-0.1-1,0.4-1.5c0.3-0.3,0.7-0.6,1.6-0.6h32     c0.8,0,1.3,0.3,1.6,0.6c0.3,0.4,0.5,0.9,0.4,1.5l-2,15C47.9,47.2,47,48,46,48z M16,31l2,14.9c0,0.1,0,0.1,0.1,0.1L46,46     c0,0,0-0.1,0-0.1L48,31H16z" fill="#343433"/></g></g><g><path d="M32,45c-3.3,0-6-2.7-6-6s2.7-6,6-6s6,2.7,6,6S35.3,45,32,45z M32,35c-2.2,0-4,1.8-4,4s1.8,4,4,4    c2.2,0,4-1.8,4-4S34.2,35,32,35z" fill="#343433"/></g></g></svg>