<?xml version="1.0" ?><svg enable-background="new 0 0 64 64" id="Layer_1_1_" version="1.1" viewBox="0 0 64 64" xml:space="preserve" xmlns="http://www.w3.org/2000/svg" xmlns:xlink="http://www.w3.org/1999/xlink"><g><g><path d="M32,37c-10.3,0-17-6.3-17-16v-1h34v1C49,30.7,42.3,37,32,37z M17,22c0.4,7.9,6.2,13,15,13s14.5-5.1,15-13    H17z" fill="#333333"/></g><g><rect fill="#333333" height="2" width="9" x="22" y="5"/></g><g><rect fill="#333333" height="2" width="4" x="33" y="5"/></g><g><path d="M56.8,63H7.2L29,55.3V40.9C18,39.6,11,32.2,11,22c0-6.2,5.8-19.8,6.1-20.4L17.3,1h29.3l0.3,0.6    C47.2,2.2,53,15.8,53,22c0,10.2-7,17.6-18,18.9v14.4L56.8,63z M18.8,61h26.3L33,56.7V39.1l0.9-0.1C44.5,38,51,31.5,51,22    c0-5.1-4.5-16.3-5.7-19H18.7C17.5,5.7,13,16.9,13,22c0,9.5,6.5,16,17.1,17l0.9,0.1v17.6L18.8,61z" fill="#333333"/></g></g></svg>