<?xml version="1.0" ?><svg enable-background="new 0 0 64 64" id="Layer_1_1_" version="1.1" viewBox="0 0 64 64" xml:space="preserve" xmlns="http://www.w3.org/2000/svg" xmlns:xlink="http://www.w3.org/1999/xlink"><g><g><path d="M39,63H25c-3.5,0-6-2.5-6-6c0-6.1,1.5-8.7,2.6-10.8c0.8-1.4,1.4-2.4,1.4-4.2c0-2.2-0.4-3.6-0.9-5.1    C21.6,35.2,21,33.3,21,30c0-6.4,2.3-9.4,4.1-11.6c1.6-2.1,2-7,2-9.5c-1-0.3-2-1.2-2-2.8c0-1.1,0.9-3.8,1.1-4.3L26.2,1h11.5L38,1.7    C38.2,2.2,39,4.9,39,6c0,1.7-1,2.5-2,2.8c0,2.5,0.3,7.5,1.9,9.5C40.6,20.6,43,23.6,43,30c0,3.3-0.6,5.2-1.1,6.9    C41.4,38.4,41,39.8,41,42c0,1.8,0.6,2.8,1.4,4.2C43.5,48.3,45,50.9,45,57C45,60.5,42.5,63,39,63z M27.7,3C27.3,4.1,27,5.5,27,6    c0,0.8,0.6,1,1,1l0.9,0L29,8c0,0.3,0.3,8.2-2.4,11.7C25,21.7,23,24.3,23,30c0,3,0.5,4.7,1,6.3c0.5,1.6,1,3.2,1,5.7    c0,2.3-0.8,3.7-1.6,5.2c-1.1,2-2.4,4.2-2.4,9.8c0,2.4,1.6,4,4,4h14c2.4,0,4-1.6,4-4c0-5.6-1.3-7.8-2.4-9.8    C39.8,45.7,39,44.3,39,42c0-2.5,0.5-4.1,1-5.7c0.5-1.6,1-3.3,1-6.3c0-5.7-2-8.3-3.6-10.4C34.7,16.3,35,8.3,35,8l0-1h1    c0.5,0,1-0.2,1-1c0-0.5-0.4-1.9-0.7-3H27.7z" fill="#333333"/></g><g><rect fill="#333333" height="2" width="4" x="30" y="7"/></g><g><path d="M25,58h-2c0-6.1,1.4-9,2.6-11.4c0.2-0.4,0.4-0.7,0.5-1.1l1.8,0.8c-0.2,0.4-0.3,0.7-0.5,1.1    C26.3,49.8,25,52.4,25,58z" fill="#333333"/></g><g><path d="M28.9,45.4l-1.8-0.9c0.8-1.5,0-3.1,0-3.1l1.8-0.9C28.9,40.7,30.1,43,28.9,45.4z" fill="#333333"/></g><g><rect fill="#333333" height="2" width="18" x="23" y="35"/></g><g><rect fill="#333333" height="2" width="18" x="23" y="25"/></g><g><rect fill="#333333" height="2" width="2" x="31" y="30"/></g><g><rect fill="#333333" height="2" width="2" x="35" y="30"/></g><g><rect fill="#333333" height="2" width="2" x="27" y="30"/></g></g></svg>