<?xml version="1.0" ?><svg enable-background="new 0 0 64 64" id="Layer_1_1_" version="1.1" viewBox="0 0 64 64" xml:space="preserve" xmlns="http://www.w3.org/2000/svg" xmlns:xlink="http://www.w3.org/1999/xlink"><g><g><rect fill="#333333" height="10" transform="matrix(1.514336e-003 -1 1 1.514336e-003 9.9675 45.9675)" width="2" x="27" y="13"/></g><g><rect fill="#333333" height="2" width="24" x="20" y="39"/></g><g><rect fill="#333333" height="2" width="24" x="20" y="54"/></g><g><path d="M37,13H27c-1.5,0-3-1.5-3-3V9c0-1.5,1.5-3,3-3l10,0c1.5,0,3,1.5,3,3v1C40,11.5,38.5,13,37,13z M27,8    c-0.4,0-1,0.6-1,1v1c0,0.4,0.6,1,1,1h10c0.5,0,1-0.5,1-1V9c0-0.4-0.6-1-1-1L27,8z" fill="#333333"/></g><g><rect fill="#333333" height="5" transform="matrix(1 -2.919696e-003 2.919696e-003 1 -1.301863e-002 9.931025e-002)" width="2" x="33" y="2"/></g><g><rect fill="#333333" height="5" width="2" x="29" y="2"/></g><g><path d="M40,63H24c-1.7,0-2.9-0.4-3.7-1.3C19.4,60.9,19,59.6,19,58c0-3.1,0-18.7,0-19c0.1-3.7,1.3-5.7,4.4-7.8    c0.2-0.2,0.5-0.6,0.6-1.3c0.1-0.8-0.2-1.7-0.7-2.2c-2-2-3.3-3.4-3.3-5.7v-6c0-3.2,2.6-5,5-5h14c2.4,0,5,1.6,5,5v6    c0,2.1-1.1,3.5-3.3,5.7c-0.5,0.5-0.8,1.4-0.7,2.3c0.1,0.6,0.3,1,0.6,1.2c3.2,2.1,4.5,4.4,4.4,7.9v19C45,61.3,43.3,63,40,63z     M25,13c-1.5,0-3,1-3,3v6c0,1.5,0.8,2.3,2.7,4.3c0.9,0.9,1.4,2.4,1.3,3.8c-0.1,1.2-0.6,2.2-1.4,2.7C22,34.6,21.1,36,21,39    c0,0.4,0,12.6,0,18.9c0,1.1,0.2,1.9,0.7,2.3c0.5,0.5,1.2,0.7,2.3,0.7h16c2.2,0,3-0.8,3-3V39c0-2.8-1-4.4-3.6-6.2    c-0.8-0.5-1.3-1.5-1.4-2.7c-0.1-1.5,0.3-3,1.3-3.9c2.1-2.1,2.7-3.1,2.7-4.3v-6c0-2.2-1.6-3-3-3H25z" fill="#333333"/></g><g><rect fill="#333333" height="2" width="2" x="35" y="17"/></g><g><rect fill="#333333" height="2" transform="matrix(7.560759e-003 -1 1 7.560759e-003 21.7047 57.8543)" width="2" x="39" y="17"/></g><g><polygon fill="#333333" points="29.6,52.8 28.4,51.2 32.2,48 26.6,48 32.3,42.3 33.7,43.7 31.4,46 37.8,46   "/></g><g><rect fill="#333333" height="2" width="8" x="28" y="1"/></g></g></svg>