<?xml version="1.0" ?><svg enable-background="new 0 0 64 64" id="Layer_1_1_" version="1.1" viewBox="0 0 64 64" xml:space="preserve" xmlns="http://www.w3.org/2000/svg" xmlns:xlink="http://www.w3.org/1999/xlink"><g><g><path d="M46.9,63H15.1L9.9,10h42.2L46.9,63z M16.9,61h28.2l4.8-49H12.1L16.9,61z" fill="#333333"/></g><g><path d="M26,31h-2c0-2.8-2.2-5-5-5s-5,2.2-5,5h-2c0-3.9,3.1-7,7-7S26,27.1,26,31z" fill="#333333"/></g><g><rect fill="#333333" height="2" width="32" x="15" y="54"/></g><g><path d="M38,31h-2c0-2.8-2.2-5-5-5s-5,2.2-5,5h-2c0-3.9,3.1-7,7-7C34.9,24,38,27.1,38,31z" fill="#333333"/></g><g><path d="M50,31h-2c0-2.8-2.2-5-5-5s-5,2.2-5,5h-2c0-3.9,3.1-7,7-7S50,27.1,50,31z" fill="#333333"/></g><g><polygon fill="#333333" points="25,55 24,31 24,30 26,30 26,31 27,55   "/></g><g><rect fill="#333333" height="2" transform="matrix(4.199615e-002 -0.9991 0.9991 4.199615e-002 -7.9949 77.662)" width="24" x="24.5" y="42"/></g><g><polygon fill="#333333" points="28.9,54.4 27.1,53.6 46.2,7.2 60.6,1.1 61.4,2.9 47.8,8.8   "/></g><g><rect fill="#333333" height="2" width="36" x="13" y="33"/></g><g><path d="M11,20c-5,0-9-4-9-9s4-9,9-9s9,4,9,9S16,20,11,20z M11,4c-3.9,0-7,3.1-7,7s3.1,7,7,7s7-3.1,7-7    S14.9,4,11,4z" fill="#333333"/></g><g><rect fill="#333333" height="5" transform="matrix(0.8 -0.6 0.6 0.8 -3.5 7.5)" width="2" x="8.5" y="6.5"/></g><g><rect fill="#333333" height="2" transform="matrix(0.7999 -0.6002 0.6002 0.7999 -5.7009 7.9029)" width="5" x="6.5" y="11.5"/></g></g></svg>