<?xml version="1.0" ?><svg enable-background="new 0 0 64 64" id="Layer_1_1_" version="1.1" viewBox="0 0 64 64" xml:space="preserve" xmlns="http://www.w3.org/2000/svg" xmlns:xlink="http://www.w3.org/1999/xlink"><g><g><rect fill="#333333" height="2" width="12" x="26" y="9"/></g><g><rect fill="#333333" height="2" width="14" x="20" y="34"/></g><g><rect fill="#333333" height="2" width="24" x="20" y="53"/></g><g><path d="M42,63H22c-1.7,0-3-1.3-3-3V37c0-5.2,1.4-8.1,2.7-11c0.5-1.1,1-2.2,1.4-3.4c1.8-5.3,1.9-11.5,1.9-12.5    l-1-3V3c0-1,0.7-2,2-2h12c1.3,0,2,1,2,2v4.2l-1,3c0.1,1.1,0.4,7.3,2,12.6c0.4,1.3,0.9,2.5,1.5,3.7C43.6,29,45,32,45,37v23    C45,61.7,43.7,63,42,63z M26,6.8l1,3V10c0,0.3,0,7.2-2.1,13.3c-0.4,1.3-1,2.4-1.5,3.6C22.3,29.5,21,32.3,21,37v23c0,0.6,0.4,1,1,1    h20c0.6,0,1-0.4,1-1V37c0-4.5-1.2-7.2-2.4-9.8c-0.6-1.2-1.2-2.5-1.6-4c-1.8-6-2-13-2-13.2l0-0.2l1-3V3H26V6.8z" fill="#333333"/></g><g><rect fill="#333333" height="2" width="7" x="37" y="34"/></g><g><rect fill="#333333" height="2" width="14" x="25" y="6"/></g><g><rect fill="#333333" height="7" width="2" x="22" y="39"/></g><g><rect fill="#333333" height="3" width="2" x="22" y="48"/></g></g></svg>