<?xml version="1.0" ?><svg enable-background="new 0 0 64 64" id="Layer_1_1_" version="1.1" viewBox="0 0 64 64" xml:space="preserve" xmlns="http://www.w3.org/2000/svg" xmlns:xlink="http://www.w3.org/1999/xlink"><g><g><path d="M38,63H26c-3.5,0-6-2.5-6-6V27c0-3.4,0.9-6.2,3.2-9.6l3.8-5.7V3c0-1.1,0.9-2,2-2h6c1.1,0,2,0.9,2,2v8.7    l3.8,5.7c2.2,3.3,3.2,6.2,3.2,9.6v30C44,60.5,41.5,63,38,63z M29,3v9.3l-4.2,6.3c-2,3-2.8,5.5-2.8,8.4v30c0,2.4,1.6,4,4,4h12    c2.4,0,4-1.6,4-4V27c0-2.9-0.8-5.5-2.8-8.4L35,12.3V3H29z" fill="#333333"/></g><g><rect fill="#333333" height="2" width="8" x="28" y="6"/></g><g><rect fill="#333333" height="2" width="22" x="21" y="32"/></g><g><rect fill="#333333" height="2" width="22" x="21" y="48"/></g><g><path d="M32,46c-2.4,0-4-1.6-4-4c0-2.1,2.7-5.1,3.3-5.7l0.7-0.8l0.7,0.8c0.5,0.6,3.3,3.6,3.3,5.7    C36,44.5,34.5,46,32,46z M32,38.5c-1,1.2-2,2.7-2,3.5c0,1.3,0.7,2,2,2c1.3,0,2-0.7,2-2C34,41.2,33,39.7,32,38.5z" fill="#333333"/></g><g><rect fill="#333333" height="9" width="2" x="24" y="30"/></g><g><rect fill="#333333" height="3" width="2" x="24" y="25"/></g></g></svg>