<?xml version="1.0" ?><svg enable-background="new 0 0 64 64" id="Layer_1_1_" version="1.1" viewBox="0 0 64 64" xml:space="preserve" xmlns="http://www.w3.org/2000/svg" xmlns:xlink="http://www.w3.org/1999/xlink"><g><g><path d="M46,63H26c-2.1,0-4-1.9-4-4l-4-40.9c0-2.2,1.9-4.1,4-4.1h28c2.1,0,4,1.9,4,4l-4,41.1    C50,61.1,48.1,63,46,63z M22,16c-1,0-2,1-2,2l4,40.9c0,1.1,1,2.1,2,2.1h20c1,0,2-1,2-2l4-41.1c0-0.9-1-1.9-2-1.9H22z" fill="#343433"/></g><g><path d="M45,60H27c-0.7,0-1.8-0.2-2-1.9l-3-30c-0.1-0.7,0.2-1.2,0.4-1.5c0.3-0.3,0.7-0.6,1.6-0.6h24    c0.8,0,1.3,0.3,1.6,0.6c0.2,0.3,0.5,0.7,0.4,1.5l-3,30C46.8,59.8,45.7,60,45,60z M27,58h18c0,0,0-0.1,0-0.1L48,28H24L27,58    C27,57.9,27,58,27,58z M26.9,58L26.9,58L26.9,58z" fill="#343433"/></g><g><path d="M38,57h-5c-1.5,0-3-1.4-3-2.9V49c0-1.5,1.5-3,3-3h5c1.5,0,3,1.5,3,3v5C41,55.5,39.5,57,38,57z M33,48    c-0.4,0-1,0.6-1,1v5.1c0,0.3,0.5,0.9,1,0.9h5c0.4,0,1-0.6,1-1v-5c0-0.4-0.6-1-1-1H33z" fill="#343433"/></g><g><polygon fill="#343433" points="30,45.2 22.1,8.7 10.6,2.9 11.4,1.1 23.9,7.3 32,44.8   "/></g><g><path d="M41,25c-1.7,0-3-1.3-3-3s1.3-3,3-3s3,1.3,3,3S42.7,25,41,25z M41,21c-0.6,0-1,0.4-1,1s0.4,1,1,1s1-0.4,1-1    S41.6,21,41,21z" fill="#343433"/></g><g><path d="M34,21c-1.1,0-2-0.9-2-2s0.9-2,2-2c1.1,0,2,0.9,2,2S35.1,21,34,21z M34,19L34,19L34,19z" fill="#343433"/></g><g><path d="M43,12c-2.2,0-4-1.8-4-4s1.8-4,4-4s4,1.8,4,4S45.2,12,43,12z M43,6c-1.1,0-2,0.9-2,2s0.9,2,2,2s2-0.9,2-2    S44.1,6,43,6z" fill="#343433"/></g><g><path d="M38,43c-0.9,0-1.8-0.4-2.4-1L33,39.4c-0.6-0.6-1-1.5-1-2.4c0-0.9,0.4-1.8,1-2.4l2.6-2.6    c0.6-0.6,1.5-1,2.4-1c0,0,0,0,0,0c0.9,0,1.8,0.4,2.4,1l2.6,2.6c0.6,0.6,1,1.5,1,2.4c0,0.9-0.4,1.8-1,2.4L40.4,42    C39.8,42.6,38.9,43,38,43z M38,33L38,33c-0.4,0-0.7,0.1-1,0.4L34.4,36c-0.3,0.3-0.4,0.6-0.4,1c0,0.4,0.1,0.7,0.4,1l2.6,2.6    c0.5,0.5,1.5,0.5,2,0l2.6-2.6c0.3-0.3,0.4-0.6,0.4-1c0-0.4-0.1-0.7-0.4-1L39,33.4C38.7,33.1,38.4,33,38,33z" fill="#343433"/></g></g></svg>