<?xml version="1.0" ?><svg enable-background="new 0 0 64 64" id="Layer_1_1_" version="1.1" viewBox="0 0 64 64" xml:space="preserve" xmlns="http://www.w3.org/2000/svg" xmlns:xlink="http://www.w3.org/1999/xlink"><g><g><path d="M58,54H6c-2.5,0-5-2.5-5-5v-1l62,0v1C63,51.6,60.6,54,58,54z M3.2,50c0.5,1.1,1.7,2,2.8,2h52    c1.1,0,2.3-0.9,2.8-2L3.2,50z" fill="#343433"/></g><g><path d="M40,20c-2.2,0-4-1.8-4-4c0-1.1-0.9-2-2-2c-1.1,0-2,0.9-2,2h-2c0-2.2,1.8-4,4-4c2.2,0,4,1.8,4,4    c0,1.1,0.9,2,2,2s2-0.9,2-2h2C44,18.2,42.2,20,40,20z" fill="#333333"/></g><g><path d="M52,21c-2.8,0-5-2.2-5-5c0-1.7-1.3-3-3-3s-3,1.3-3,3h-2c0-2.8,2.2-5,5-5s5,2.2,5,5c0,1.7,1.3,3,3,3    s3-1.3,3-3h2C57,18.8,54.8,21,52,21z" fill="#333333"/></g><g><path d="M29,50C18,50,9,41,9,30c0-2.2,0.3-4.3,1-6.3l0.2-0.7l37.5,0l0.2,0.7c0.7,2,1,4.2,1,6.3C49,41,40,50,29,50z     M11.7,25c-0.5,1.6-0.7,3.3-0.7,5c0,9.9,8.1,18,18,18c9.9,0,18-8.1,18-18c0-1.7-0.2-3.4-0.7-5L11.7,25z" fill="#343433"/></g><g><path d="M29,46c-8.8,0-16-6.7-16-15v-1h32v1C45,39.3,37.8,46,29,46z M15,32c0.6,6.7,6.6,12,14,12s13.4-5.3,14-12    H15z" fill="#343433"/></g><g><path d="M53,37v-2c2.2,0,4-1.8,4-4c0-2.2-1.8-4-4-4s-4,1.8-4,4h-2c0-3.3,2.7-6,6-6s6,2.7,6,6S56.3,37,53,37z" fill="#343433"/></g><g><rect fill="#343433" height="11" width="2" x="33" y="24"/></g><g><path d="M37,40h-6v-6h6V40z M33,38h2v-2h-2V38z" fill="#343433"/></g><g><rect fill="#343433" height="2" width="6" x="13" y="27"/></g><g><rect fill="#343433" height="2" width="2" x="21" y="27"/></g></g></svg>