<?xml version="1.0" ?><svg enable-background="new 0 0 64 64" id="Layer_1_1_" version="1.1" viewBox="0 0 64 64" xml:space="preserve" xmlns="http://www.w3.org/2000/svg" xmlns:xlink="http://www.w3.org/1999/xlink"><g><g><path d="M44,63H20c-1.7,0-3-1.3-3-3V24c0-2.4,1.3-3.7,2.3-4.7l7.7-6.7V7h2v6.5l-8.3,7.3C19.8,21.7,19,22.4,19,24    v36c0,0.6,0.4,1,1,1h24c0.6,0,1-0.4,1-1V24c0-1.6-0.8-2.3-1.7-3.3L35,13.5V7h2v5.5l7.7,6.7c1.1,1.1,2.3,2.3,2.3,4.8v36    C47,61.7,45.7,63,44,63z" fill="#333333"/></g><g><rect fill="#333333" height="2" transform="matrix(0.9615 -0.2748 0.2748 0.9615 -7.2865 9.9865)" width="29.1" x="17.4" y="30"/></g><g><rect fill="#333333" height="2" transform="matrix(0.9615 -0.2748 0.2748 0.9615 -12.5075 10.7179)" width="29.1" x="17.4" y="49"/></g><g><rect fill="#333333" height="2" transform="matrix(0.9544 -0.2984 0.2984 0.9544 -10.6286 11.3958)" width="16.8" x="23.6" y="39.5"/></g><g><rect fill="#333333" height="2" transform="matrix(0.9486 -0.3165 0.3165 0.9486 -11.4727 14.3712)" width="3.2" x="36.9" y="41.5"/></g><g><polygon fill="#333333" points="23,37 21,37 21,23.6 25.3,19.3 26.7,20.7 23,24.4   "/></g><g><rect fill="#333333" height="2" width="2" x="41" y="57"/></g><g><rect fill="#333333" height="2" width="2" x="41" y="53"/></g><g><rect fill="#333333" height="2" width="2" x="41" y="49"/></g><g><path d="M36,8h-8c-1.1,0-2-0.9-2-2V3c0-1.1,0.9-2,2-2h8c1.1,0,2,0.9,2,2v3C38,7.1,37.1,8,36,8z M28,3v3h8V3L28,3z     M36,3h1H36L36,3L36,3z" fill="#333333"/></g></g></svg>